%
M48
M72
T01C0.02756
T02C0.03200
T03C0.04000
T04C0.04400
T05C0.05118
T06C0.12598
%
T01
X86400Y66400
X86400Y76400
X101400Y166400
X111400Y166400
X151400Y166400
X161400Y166400
X201400Y166400
X211400Y166400
X201400Y241400
X191400Y241400
X186400Y76400
X186400Y66400
X61400Y166400
X51400Y166400
X26400Y256400
X16400Y256400
T02
X51400Y151400
X51400Y141400
X51400Y131400
X51400Y121400
X51400Y106400
X61400Y106400
X71400Y106400
X81400Y121400
X81400Y131400
X81400Y141400
X81400Y151400
X101400Y151400
X101400Y141400
X101400Y131400
X101400Y121400
X101400Y96400
X101400Y86400
X101400Y76400
X101400Y66400
X101400Y56400
X101400Y46400
X101400Y36400
X71400Y16400
X61400Y16400
X51400Y16400
X51400Y56400
X51400Y66400
X61400Y66400
X61400Y56400
X71400Y56400
X71400Y66400
X131400Y66400
X131400Y56400
X131400Y46400
X131400Y36400
X151400Y46400
X161400Y46400
X171400Y46400
X201400Y46400
X201400Y36400
X201400Y56400
X201400Y66400
X201400Y76400
X201400Y86400
X201400Y96400
X201400Y121400
X201400Y131400
X201400Y141400
X201400Y151400
X181400Y151400
X181400Y141400
X181400Y131400
X181400Y121400
X171400Y86400
X161400Y86400
X151400Y86400
X131400Y86400
X131400Y76400
X131400Y96400
X131400Y121400
X131400Y131400
X131400Y141400
X131400Y151400
X151400Y151400
X151400Y141400
X151400Y131400
X151400Y121400
X231400Y121400
X231400Y131400
X231400Y141400
X231400Y151400
X231400Y96400
X231400Y86400
X231400Y76400
X231400Y66400
X231400Y56400
X231400Y46400
X231400Y36400
X146400Y256400
X126400Y256400
X106400Y256400
X106400Y296400
X126400Y296400
X146400Y296400
T03
X146400Y306400
X126400Y306400
X106400Y306400
X106400Y241400
X96400Y241400
X86400Y241400
X76400Y241400
X66400Y241400
X56400Y241400
X46400Y241400
X36400Y241400
X26400Y241400
X16400Y241400
X41400Y290900
X41400Y301900
X116400Y241400
X126400Y241400
X126400Y181400
X116400Y181400
X106400Y181400
X96400Y181400
X86400Y181400
X76400Y181400
X66400Y181400
X56400Y181400
X46400Y181400
X36400Y181400
X26400Y181400
X16400Y181400
X88900Y11400
X106400Y11400
X123900Y11400
X141400Y11400
X158900Y11400
X176400Y11400
X193900Y11400
X211400Y11400
X201400Y206400
X191400Y206400
X181400Y206400
T04
X86400Y301400
X76400Y301400
X66400Y301400
X31400Y151400
X31400Y141400
X31400Y131400
X31400Y121400
X31400Y111400
X31400Y96400
X31400Y86400
X31400Y76400
X31400Y66400
T05
X181400Y296400
X201085Y296400
T06
X16400Y16400
X231400Y16400
X231400Y301400
X16400Y301400
M30
